Coordinates
version=1
nRows=6
nColumns=34
inDegrees=yes

Units are S.I. units (second, meters, Newtons, ...)
If the header above contains a line with 'inDegrees', this indicates whether rotational values are in degrees (yes) or radians (no).

endheader
time	pelvis_tilt	pelvis_list	pelvis_rotation	pelvis_tx	pelvis_ty	pelvis_tz	hip_flexion_r	hip_adduction_r	hip_rotation_r	knee_angle_r	ankle_angle_r	subtalar_angle_r	mtp_angle_r	hip_flexion_l	hip_adduction_l	hip_rotation_l	knee_angle_l	ankle_angle_l	subtalar_angle_l	mtp_angle_l	lumbar_extension	lumbar_bending	lumbar_rotation	arm_flex_r	arm_add_r	arm_rot_r	elbow_flex_r	pro_sup_r	arm_flex_l	arm_add_l	arm_rot_l	elbow_flex_l	pro_sup_l
      3.70000000	    -28.36102843	      4.94092983	     -3.51355128	      0.92710103	      0.70222475	      0.00515294	     74.35099430	    -14.33773232	      1.56142420	     86.19985582	     23.52379963	    -11.81841506	      0.00000000	     71.84805794	    -14.82575505	     -9.94897319	     87.35297745	     22.65004190	     -7.46241499	      0.00000000	    -27.60219387	      0.66035212	     -4.36410964	    122.03801358	     -4.19941522	     37.77532352	     98.21768925	     88.51517169	    127.10137274	     -5.91438791	     44.93173288	     79.90152387	     85.35029564
      3.71666670	    -27.67191104	      5.11958907	     -4.09733039	      0.93827145	      0.72617103	      0.00822530	     69.97079906	    -14.10054637	      0.62860010	     81.12768420	     21.86361887	    -11.95381449	      0.00000000	     67.26253199	    -14.22604388	    -10.94546212	     82.45999175	     21.16899193	     -8.11011324	      0.00000000	    -25.50602647	      0.38925702	     -3.54044621	    121.80497657	     -4.73972556	     44.37818602	     92.83588221	     86.52995355	    127.88436458	     -8.37853098	     45.28820064	     73.48078471	     83.49520095
      3.73333330	    -27.14324676	      5.13561888	     -4.44881090	      0.95089798	      0.75535328	      0.01102371	     65.11718303	    -13.72628222	     -0.59710753	     75.12981727	     19.63211870	    -12.26060137	      0.00000000	     62.39583051	    -13.43213194	    -11.77778083	     76.41365534	     18.70598420	     -8.81553257	      0.00000000	    -22.98875937	     -0.05674802	     -2.90753361	    119.48167270	     -6.86494689	     50.31215166	     89.88761883	     83.03785759	    126.95501453	    -10.69458875	     41.02886301	     64.40850224	     81.28585498
      3.75000000	    -26.67714466	      5.34216092	     -4.55438919	      0.96756227	      0.78576977	      0.01433476	     59.56887057	    -13.54159520	     -1.90376067	     67.87053072	     17.38538461	    -12.63112914	      0.00000000	     57.21390730	    -12.12420139	    -12.50456589	     69.47855238	     15.88815407	    -10.17828867	      0.00000000	    -20.80445699	     -0.37769111	     -0.59208997	    117.36473559	    -11.17640248	     56.87241448	     92.07967764	     81.24397165	    124.97872498	    -11.27832033	     36.85163218	     52.82822340	     80.80492159
      3.76666670	    -26.20722325	      5.42664120	     -4.56006463	      0.98007053	      0.81524945	      0.01142584	     53.97225626	    -13.52092007	     -3.70186314	     60.33296539	     14.78387436	    -12.25149828	      0.00000000	     52.11601059	    -10.46020007	    -12.95912721	     62.04838993	     12.45370584	    -11.24756934	      0.00000000	    -18.38133599	     -2.28995090	      1.29126029	    109.63378628	    -21.48124810	     57.16921965	    100.77569526	     79.50425333	    124.10228064	     -6.87738454	     32.35768772	     35.42192066	     81.60676801
      3.78333330	    -25.79726089	      5.55357047	     -5.16355055	      0.99550576	      0.84362556	      0.01021267	     48.76338069	    -13.24491233	     -5.11992711	     52.46737184	     11.53110619	    -10.51758871	      0.00000000	     46.75854705	     -8.94756388	    -13.48675170	     54.05437393	      9.61603193	    -11.10322885	      0.00000000	    -16.34348666	     -3.53919775	      4.59208065	     99.84355142	    -34.33371105	     54.02461380	    112.58588649	     79.20839712	    123.23866610	     -4.28190112	     31.67471231	     21.99378680	     83.66918673
